# xmcd
#
# Track frame offsets:
#	150
#	16579
#	29523
#	41810
#	56108
#	69772
#	89298
#	109388
#	121771
#	138153
#	152978
#	168815
#	185459
#	199919
#	214216
#
# Disc length: 3100 seconds
#
# Revision: 2
# Processed by: cddbd v1.5.2PL0 Copyright (c) Steve Scherf et al.
# Submitted via: audiograbber 1.83.01
#
DISCID=cc0c1a0f
DTITLE=Forever Hits - FH-9021 Karaoke Forever Country Volume 1
DYEAR=9999
DGENRE=Karaoke - Country
TTITLE0=Toby Keith - Courtesy Of The Red, White and Blue (The Angry American) (Ka
TTITLE0=raoke)
TTITLE1=George Strait - Amarillo By Morning (Karaoke)
TTITLE2=George Strait - Ace In The Hole (Karaoke)
TTITLE3=Various Artist - America (Traditional) (Karaoke)
TTITLE4=George Strait - Chair, The (Karaoke)
TTITLE5=Brooks and Dunn - You're Gonna Miss Me When I'm Gone (Karaoke)
TTITLE6=Soggy Bottom Boys - I Am A Man Of Constant Sorrow (Karaoke)
TTITLE7=Alan Jackson - Little Bitty (Karaoke)
TTITLE8=Alabama - Feels So Right (Karaoke)
TTITLE9=Alabama - Love In The First Degree (Karaoke)
TTITLE10=Tractors, The - Baby Likes To Rock It (Karaoke)
TTITLE11=Diamond Rio - Meet In The Middle (Karaoke)
TTITLE12=Restless Heart - That Rock Won't Roll (Karaoke)
TTITLE13=Various Artist - Git Along Little Doggies (Traditional) (Karaoke)
TTITLE14=Lonestar - Amazed (Karaoke)
EXTD=
EXTT0=
EXTT1=
EXTT2=
EXTT3=
EXTT4=
EXTT5=
EXTT6=
EXTT7=
EXTT8=
EXTT9=
EXTT10=
EXTT11=
EXTT12=
EXTT13=
EXTT14=
PLAYORDER=
